<mxfile host="65bd71144e">
    <diagram id="GGx1dJX0-lRNSTC5DQ5b" name="Page-1">
        <mxGraphModel dx="2362" dy="911" grid="0" gridSize="10" guides="1" tooltips="1" connect="1" arrows="1" fold="1" page="1" pageScale="1" pageWidth="850" pageHeight="1100" background="none" math="0" shadow="0">
            <root>
                <mxCell id="0"/>
                <mxCell id="1" parent="0"/>
                <mxCell id="477" value="&quot;Credential&quot;" style="shape=table;startSize=30;container=1;collapsible=1;childLayout=tableLayout;fixedRows=1;rowLines=0;fontStyle=1;align=center;resizeLast=1;" vertex="1" parent="1">
                    <mxGeometry x="-393" y="477" width="271" height="510" as="geometry"/>
                </mxCell>
                <mxCell id="478" value="" style="shape=tableRow;horizontal=0;startSize=0;swimlaneHead=0;swimlaneBody=0;fillColor=none;collapsible=0;dropTarget=0;points=[[0,0.5],[1,0.5]];portConstraint=eastwest;top=0;left=0;right=0;bottom=1;" vertex="1" parent="477">
                    <mxGeometry y="30" width="271" height="30" as="geometry"/>
                </mxCell>
                <mxCell id="479" value="PK" style="shape=partialRectangle;overflow=hidden;connectable=0;fillColor=none;top=0;left=0;bottom=0;right=0;fontStyle=1;" vertex="1" parent="478">
                    <mxGeometry width="30" height="30" as="geometry">
                        <mxRectangle width="30" height="30" as="alternateBounds"/>
                    </mxGeometry>
                </mxCell>
                <mxCell id="480" value="&quot;credentialId&quot;   Int NN" style="shape=partialRectangle;overflow=hidden;connectable=0;fillColor=none;align=left;top=0;left=0;bottom=0;right=0;spacingLeft=6;fontStyle=5;" vertex="1" parent="478">
                    <mxGeometry x="30" width="241" height="30" as="geometry">
                        <mxRectangle width="241" height="30" as="alternateBounds"/>
                    </mxGeometry>
                </mxCell>
                <mxCell id="481" value="" style="shape=tableRow;horizontal=0;startSize=0;swimlaneHead=0;swimlaneBody=0;fillColor=none;collapsible=0;dropTarget=0;points=[[0,0.5],[1,0.5]];portConstraint=eastwest;top=0;left=0;right=0;bottom=1;" vertex="1" parent="477">
                    <mxGeometry y="60" width="271" height="30" as="geometry"/>
                </mxCell>
                <mxCell id="482" value="FK" style="shape=partialRectangle;overflow=hidden;connectable=0;fillColor=none;top=0;left=0;bottom=0;right=0;fontStyle=1;" vertex="1" parent="481">
                    <mxGeometry width="30" height="30" as="geometry">
                        <mxRectangle width="30" height="30" as="alternateBounds"/>
                    </mxGeometry>
                </mxCell>
                <mxCell id="483" value="&quot;userId&quot;            Int NN" style="shape=partialRectangle;overflow=hidden;connectable=0;fillColor=none;align=left;top=0;left=0;bottom=0;right=0;spacingLeft=6;fontStyle=5;" vertex="1" parent="481">
                    <mxGeometry x="30" width="241" height="30" as="geometry">
                        <mxRectangle width="241" height="30" as="alternateBounds"/>
                    </mxGeometry>
                </mxCell>
                <mxCell id="484" value="" style="shape=tableRow;horizontal=0;startSize=0;swimlaneHead=0;swimlaneBody=0;fillColor=none;collapsible=0;dropTarget=0;points=[[0,0.5],[1,0.5]];portConstraint=eastwest;top=0;left=0;right=0;bottom=0;" vertex="1" parent="477">
                    <mxGeometry y="90" width="271" height="30" as="geometry"/>
                </mxCell>
                <mxCell id="485" value="" style="shape=partialRectangle;overflow=hidden;connectable=0;fillColor=none;top=0;left=0;bottom=0;right=0;" vertex="1" parent="484">
                    <mxGeometry width="30" height="30" as="geometry">
                        <mxRectangle width="30" height="30" as="alternateBounds"/>
                    </mxGeometry>
                </mxCell>
                <mxCell id="486" value="&quot;serviceName&quot;     String NN" style="shape=partialRectangle;overflow=hidden;connectable=0;fillColor=none;align=left;top=0;left=0;bottom=0;right=0;spacingLeft=6;" vertex="1" parent="484">
                    <mxGeometry x="30" width="241" height="30" as="geometry">
                        <mxRectangle width="241" height="30" as="alternateBounds"/>
                    </mxGeometry>
                </mxCell>
                <mxCell id="487" value="" style="shape=tableRow;horizontal=0;startSize=0;swimlaneHead=0;swimlaneBody=0;fillColor=none;collapsible=0;dropTarget=0;points=[[0,0.5],[1,0.5]];portConstraint=eastwest;top=0;left=0;right=0;bottom=0;" vertex="1" parent="477">
                    <mxGeometry y="120" width="271" height="30" as="geometry"/>
                </mxCell>
                <mxCell id="488" value="" style="shape=partialRectangle;overflow=hidden;connectable=0;fillColor=none;top=0;left=0;bottom=0;right=0;" vertex="1" parent="487">
                    <mxGeometry width="30" height="30" as="geometry">
                        <mxRectangle width="30" height="30" as="alternateBounds"/>
                    </mxGeometry>
                </mxCell>
                <mxCell id="489" value="&quot;title&quot;                    String NN" style="shape=partialRectangle;overflow=hidden;connectable=0;fillColor=none;align=left;top=0;left=0;bottom=0;right=0;spacingLeft=6;" vertex="1" parent="487">
                    <mxGeometry x="30" width="241" height="30" as="geometry">
                        <mxRectangle width="241" height="30" as="alternateBounds"/>
                    </mxGeometry>
                </mxCell>
                <mxCell id="490" value="" style="shape=tableRow;horizontal=0;startSize=0;swimlaneHead=0;swimlaneBody=0;fillColor=none;collapsible=0;dropTarget=0;points=[[0,0.5],[1,0.5]];portConstraint=eastwest;top=0;left=0;right=0;bottom=0;" vertex="1" parent="477">
                    <mxGeometry y="150" width="271" height="30" as="geometry"/>
                </mxCell>
                <mxCell id="491" value="" style="shape=partialRectangle;overflow=hidden;connectable=0;fillColor=none;top=0;left=0;bottom=0;right=0;" vertex="1" parent="490">
                    <mxGeometry width="30" height="30" as="geometry">
                        <mxRectangle width="30" height="30" as="alternateBounds"/>
                    </mxGeometry>
                </mxCell>
                <mxCell id="492" value="&quot;data&quot;                  String NN" style="shape=partialRectangle;overflow=hidden;connectable=0;fillColor=none;align=left;top=0;left=0;bottom=0;right=0;spacingLeft=6;" vertex="1" parent="490">
                    <mxGeometry x="30" width="241" height="30" as="geometry">
                        <mxRectangle width="241" height="30" as="alternateBounds"/>
                    </mxGeometry>
                </mxCell>
                <mxCell id="493" value="" style="shape=tableRow;horizontal=0;startSize=0;swimlaneHead=0;swimlaneBody=0;fillColor=none;collapsible=0;dropTarget=0;points=[[0,0.5],[1,0.5]];portConstraint=eastwest;top=0;left=0;right=0;bottom=0;" vertex="1" parent="477">
                    <mxGeometry y="180" width="271" height="30" as="geometry"/>
                </mxCell>
                <mxCell id="494" value="" style="shape=partialRectangle;overflow=hidden;connectable=0;fillColor=none;top=0;left=0;bottom=0;right=0;" vertex="1" parent="493">
                    <mxGeometry width="30" height="30" as="geometry">
                        <mxRectangle width="30" height="30" as="alternateBounds"/>
                    </mxGeometry>
                </mxCell>
                <mxCell id="495" value="&quot;url&quot;                     String" style="shape=partialRectangle;overflow=hidden;connectable=0;fillColor=none;align=left;top=0;left=0;bottom=0;right=0;spacingLeft=6;" vertex="1" parent="493">
                    <mxGeometry x="30" width="241" height="30" as="geometry">
                        <mxRectangle width="241" height="30" as="alternateBounds"/>
                    </mxGeometry>
                </mxCell>
                <mxCell id="496" value="" style="shape=tableRow;horizontal=0;startSize=0;swimlaneHead=0;swimlaneBody=0;fillColor=none;collapsible=0;dropTarget=0;points=[[0,0.5],[1,0.5]];portConstraint=eastwest;top=0;left=0;right=0;bottom=0;" vertex="1" parent="477">
                    <mxGeometry y="210" width="271" height="30" as="geometry"/>
                </mxCell>
                <mxCell id="497" value="" style="shape=partialRectangle;overflow=hidden;connectable=0;fillColor=none;top=0;left=0;bottom=0;right=0;" vertex="1" parent="496">
                    <mxGeometry width="30" height="30" as="geometry">
                        <mxRectangle width="30" height="30" as="alternateBounds"/>
                    </mxGeometry>
                </mxCell>
                <mxCell id="498" value="&quot;isWeak&quot;             Boolean NN" style="shape=partialRectangle;overflow=hidden;connectable=0;fillColor=none;align=left;top=0;left=0;bottom=0;right=0;spacingLeft=6;" vertex="1" parent="496">
                    <mxGeometry x="30" width="241" height="30" as="geometry">
                        <mxRectangle width="241" height="30" as="alternateBounds"/>
                    </mxGeometry>
                </mxCell>
                <mxCell id="499" value="" style="shape=tableRow;horizontal=0;startSize=0;swimlaneHead=0;swimlaneBody=0;fillColor=none;collapsible=0;dropTarget=0;points=[[0,0.5],[1,0.5]];portConstraint=eastwest;top=0;left=0;right=0;bottom=0;" vertex="1" parent="477">
                    <mxGeometry y="240" width="271" height="30" as="geometry"/>
                </mxCell>
                <mxCell id="500" value="" style="shape=partialRectangle;overflow=hidden;connectable=0;fillColor=none;top=0;left=0;bottom=0;right=0;" vertex="1" parent="499">
                    <mxGeometry width="30" height="30" as="geometry">
                        <mxRectangle width="30" height="30" as="alternateBounds"/>
                    </mxGeometry>
                </mxCell>
                <mxCell id="501" value="&quot;isReused&quot;          Boolean" style="shape=partialRectangle;overflow=hidden;connectable=0;fillColor=none;align=left;top=0;left=0;bottom=0;right=0;spacingLeft=6;" vertex="1" parent="499">
                    <mxGeometry x="30" width="241" height="30" as="geometry">
                        <mxRectangle width="241" height="30" as="alternateBounds"/>
                    </mxGeometry>
                </mxCell>
                <mxCell id="502" value="" style="shape=tableRow;horizontal=0;startSize=0;swimlaneHead=0;swimlaneBody=0;fillColor=none;collapsible=0;dropTarget=0;points=[[0,0.5],[1,0.5]];portConstraint=eastwest;top=0;left=0;right=0;bottom=0;" vertex="1" parent="477">
                    <mxGeometry y="270" width="271" height="30" as="geometry"/>
                </mxCell>
                <mxCell id="503" value="" style="shape=partialRectangle;overflow=hidden;connectable=0;fillColor=none;top=0;left=0;bottom=0;right=0;" vertex="1" parent="502">
                    <mxGeometry width="30" height="30" as="geometry">
                        <mxRectangle width="30" height="30" as="alternateBounds"/>
                    </mxGeometry>
                </mxCell>
                <mxCell id="504" value="&quot;isOld&quot;                 Boolean NN" style="shape=partialRectangle;overflow=hidden;connectable=0;fillColor=none;align=left;top=0;left=0;bottom=0;right=0;spacingLeft=6;" vertex="1" parent="502">
                    <mxGeometry x="30" width="241" height="30" as="geometry">
                        <mxRectangle width="241" height="30" as="alternateBounds"/>
                    </mxGeometry>
                </mxCell>
                <mxCell id="505" value="" style="shape=tableRow;horizontal=0;startSize=0;swimlaneHead=0;swimlaneBody=0;fillColor=none;collapsible=0;dropTarget=0;points=[[0,0.5],[1,0.5]];portConstraint=eastwest;top=0;left=0;right=0;bottom=0;" vertex="1" parent="477">
                    <mxGeometry y="300" width="271" height="30" as="geometry"/>
                </mxCell>
                <mxCell id="506" value="" style="shape=partialRectangle;overflow=hidden;connectable=0;fillColor=none;top=0;left=0;bottom=0;right=0;" vertex="1" parent="505">
                    <mxGeometry width="30" height="30" as="geometry">
                        <mxRectangle width="30" height="30" as="alternateBounds"/>
                    </mxGeometry>
                </mxCell>
                <mxCell id="507" value="&quot;dateCreated&quot;     DateTime NN" style="shape=partialRectangle;overflow=hidden;connectable=0;fillColor=none;align=left;top=0;left=0;bottom=0;right=0;spacingLeft=6;" vertex="1" parent="505">
                    <mxGeometry x="30" width="241" height="30" as="geometry">
                        <mxRectangle width="241" height="30" as="alternateBounds"/>
                    </mxGeometry>
                </mxCell>
                <mxCell id="508" value="" style="shape=tableRow;horizontal=0;startSize=0;swimlaneHead=0;swimlaneBody=0;fillColor=none;collapsible=0;dropTarget=0;points=[[0,0.5],[1,0.5]];portConstraint=eastwest;top=0;left=0;right=0;bottom=0;" vertex="1" parent="477">
                    <mxGeometry y="330" width="271" height="30" as="geometry"/>
                </mxCell>
                <mxCell id="509" value="" style="shape=partialRectangle;overflow=hidden;connectable=0;fillColor=none;top=0;left=0;bottom=0;right=0;" vertex="1" parent="508">
                    <mxGeometry width="30" height="30" as="geometry">
                        <mxRectangle width="30" height="30" as="alternateBounds"/>
                    </mxGeometry>
                </mxCell>
                <mxCell id="510" value="&quot;dateUpdated&quot;    DateTime NN" style="shape=partialRectangle;overflow=hidden;connectable=0;fillColor=none;align=left;top=0;left=0;bottom=0;right=0;spacingLeft=6;" vertex="1" parent="508">
                    <mxGeometry x="30" width="241" height="30" as="geometry">
                        <mxRectangle width="241" height="30" as="alternateBounds"/>
                    </mxGeometry>
                </mxCell>
                <mxCell id="511" value="" style="shape=tableRow;horizontal=0;startSize=0;swimlaneHead=0;swimlaneBody=0;fillColor=none;collapsible=0;dropTarget=0;points=[[0,0.5],[1,0.5]];portConstraint=eastwest;top=0;left=0;right=0;bottom=0;" vertex="1" parent="477">
                    <mxGeometry y="360" width="271" height="30" as="geometry"/>
                </mxCell>
                <mxCell id="512" value="" style="shape=partialRectangle;overflow=hidden;connectable=0;fillColor=none;top=0;left=0;bottom=0;right=0;" vertex="1" parent="511">
                    <mxGeometry width="30" height="30" as="geometry">
                        <mxRectangle width="30" height="30" as="alternateBounds"/>
                    </mxGeometry>
                </mxCell>
                <mxCell id="513" value="&quot;serviceType&quot;      String NN" style="shape=partialRectangle;overflow=hidden;connectable=0;fillColor=none;align=left;top=0;left=0;bottom=0;right=0;spacingLeft=6;" vertex="1" parent="511">
                    <mxGeometry x="30" width="241" height="30" as="geometry">
                        <mxRectangle width="241" height="30" as="alternateBounds"/>
                    </mxGeometry>
                </mxCell>
                <mxCell id="514" value="" style="shape=tableRow;horizontal=0;startSize=0;swimlaneHead=0;swimlaneBody=0;fillColor=none;collapsible=0;dropTarget=0;points=[[0,0.5],[1,0.5]];portConstraint=eastwest;top=0;left=0;right=0;bottom=0;" vertex="1" parent="477">
                    <mxGeometry y="390" width="271" height="30" as="geometry"/>
                </mxCell>
                <mxCell id="515" value="" style="shape=partialRectangle;overflow=hidden;connectable=0;fillColor=none;top=0;left=0;bottom=0;right=0;" vertex="1" parent="514">
                    <mxGeometry width="30" height="30" as="geometry">
                        <mxRectangle width="30" height="30" as="alternateBounds"/>
                    </mxGeometry>
                </mxCell>
                <mxCell id="516" value="&quot;picture&quot;              String" style="shape=partialRectangle;overflow=hidden;connectable=0;fillColor=none;align=left;top=0;left=0;bottom=0;right=0;spacingLeft=6;" vertex="1" parent="514">
                    <mxGeometry x="30" width="241" height="30" as="geometry">
                        <mxRectangle width="241" height="30" as="alternateBounds"/>
                    </mxGeometry>
                </mxCell>
                <mxCell id="517" value="" style="shape=tableRow;horizontal=0;startSize=0;swimlaneHead=0;swimlaneBody=0;fillColor=none;collapsible=0;dropTarget=0;points=[[0,0.5],[1,0.5]];portConstraint=eastwest;top=0;left=0;right=0;bottom=0;" vertex="1" parent="477">
                    <mxGeometry y="420" width="271" height="30" as="geometry"/>
                </mxCell>
                <mxCell id="518" value="" style="shape=partialRectangle;overflow=hidden;connectable=0;fillColor=none;top=0;left=0;bottom=0;right=0;" vertex="1" parent="517">
                    <mxGeometry width="30" height="30" as="geometry">
                        <mxRectangle width="30" height="30" as="alternateBounds"/>
                    </mxGeometry>
                </mxCell>
                <mxCell id="519" value="&quot;isFavourite&quot;       Boolean NN" style="shape=partialRectangle;overflow=hidden;connectable=0;fillColor=none;align=left;top=0;left=0;bottom=0;right=0;spacingLeft=6;" vertex="1" parent="517">
                    <mxGeometry x="30" width="241" height="30" as="geometry">
                        <mxRectangle width="241" height="30" as="alternateBounds"/>
                    </mxGeometry>
                </mxCell>
                <mxCell id="520" value="" style="shape=tableRow;horizontal=0;startSize=0;swimlaneHead=0;swimlaneBody=0;fillColor=none;collapsible=0;dropTarget=0;points=[[0,0.5],[1,0.5]];portConstraint=eastwest;top=0;left=0;right=0;bottom=0;" vertex="1" parent="477">
                    <mxGeometry y="450" width="271" height="30" as="geometry"/>
                </mxCell>
                <mxCell id="521" value="" style="shape=partialRectangle;overflow=hidden;connectable=0;fillColor=none;top=0;left=0;bottom=0;right=0;" vertex="1" parent="520">
                    <mxGeometry width="30" height="30" as="geometry">
                        <mxRectangle width="30" height="30" as="alternateBounds"/>
                    </mxGeometry>
                </mxCell>
                <mxCell id="522" value="&quot;isTrashed&quot;         Boolean NN" style="shape=partialRectangle;overflow=hidden;connectable=0;fillColor=none;align=left;top=0;left=0;bottom=0;right=0;spacingLeft=6;" vertex="1" parent="520">
                    <mxGeometry x="30" width="241" height="30" as="geometry">
                        <mxRectangle width="241" height="30" as="alternateBounds"/>
                    </mxGeometry>
                </mxCell>
                <mxCell id="523" value="" style="shape=tableRow;horizontal=0;startSize=0;swimlaneHead=0;swimlaneBody=0;fillColor=none;collapsible=0;dropTarget=0;points=[[0,0.5],[1,0.5]];portConstraint=eastwest;top=0;left=0;right=0;bottom=0;" vertex="1" parent="477">
                    <mxGeometry y="480" width="271" height="30" as="geometry"/>
                </mxCell>
                <mxCell id="524" value="" style="shape=partialRectangle;overflow=hidden;connectable=0;fillColor=none;top=0;left=0;bottom=0;right=0;" vertex="1" parent="523">
                    <mxGeometry width="30" height="30" as="geometry">
                        <mxRectangle width="30" height="30" as="alternateBounds"/>
                    </mxGeometry>
                </mxCell>
                <mxCell id="525" value="&quot;dateTrashed&quot;    DateTime NN" style="shape=partialRectangle;overflow=hidden;connectable=0;fillColor=none;align=left;top=0;left=0;bottom=0;right=0;spacingLeft=6;" vertex="1" parent="523">
                    <mxGeometry x="30" width="241" height="30" as="geometry">
                        <mxRectangle width="241" height="30" as="alternateBounds"/>
                    </mxGeometry>
                </mxCell>
                <mxCell id="526" value="&quot;SecurityQuestion&quot;" style="shape=table;startSize=30;container=1;collapsible=1;childLayout=tableLayout;fixedRows=1;rowLines=0;fontStyle=1;align=center;resizeLast=1;" vertex="1" parent="1">
                    <mxGeometry x="-816" y="204" width="320" height="120" as="geometry"/>
                </mxCell>
                <mxCell id="527" value="" style="shape=tableRow;horizontal=0;startSize=0;swimlaneHead=0;swimlaneBody=0;fillColor=none;collapsible=0;dropTarget=0;points=[[0,0.5],[1,0.5]];portConstraint=eastwest;top=0;left=0;right=0;bottom=1;" vertex="1" parent="526">
                    <mxGeometry y="30" width="320" height="30" as="geometry"/>
                </mxCell>
                <mxCell id="528" value="PK" style="shape=partialRectangle;overflow=hidden;connectable=0;fillColor=none;top=0;left=0;bottom=0;right=0;fontStyle=1;" vertex="1" parent="527">
                    <mxGeometry width="30" height="30" as="geometry">
                        <mxRectangle width="30" height="30" as="alternateBounds"/>
                    </mxGeometry>
                </mxCell>
                <mxCell id="529" value="&quot;securityQuestionId&quot;    Int NN" style="shape=partialRectangle;overflow=hidden;connectable=0;fillColor=none;align=left;top=0;left=0;bottom=0;right=0;spacingLeft=6;fontStyle=5;" vertex="1" parent="527">
                    <mxGeometry x="30" width="290" height="30" as="geometry">
                        <mxRectangle width="290" height="30" as="alternateBounds"/>
                    </mxGeometry>
                </mxCell>
                <mxCell id="530" value="" style="shape=tableRow;horizontal=0;startSize=0;swimlaneHead=0;swimlaneBody=0;fillColor=none;collapsible=0;dropTarget=0;points=[[0,0.5],[1,0.5]];portConstraint=eastwest;top=0;left=0;right=0;bottom=1;" vertex="1" parent="526">
                    <mxGeometry y="60" width="320" height="30" as="geometry"/>
                </mxCell>
                <mxCell id="531" value="FK" style="shape=partialRectangle;overflow=hidden;connectable=0;fillColor=none;top=0;left=0;bottom=0;right=0;fontStyle=1;" vertex="1" parent="530">
                    <mxGeometry width="30" height="30" as="geometry">
                        <mxRectangle width="30" height="30" as="alternateBounds"/>
                    </mxGeometry>
                </mxCell>
                <mxCell id="532" value="&quot;userId&quot;                          Int NN" style="shape=partialRectangle;overflow=hidden;connectable=0;fillColor=none;align=left;top=0;left=0;bottom=0;right=0;spacingLeft=6;fontStyle=5;" vertex="1" parent="530">
                    <mxGeometry x="30" width="290" height="30" as="geometry">
                        <mxRectangle width="290" height="30" as="alternateBounds"/>
                    </mxGeometry>
                </mxCell>
                <mxCell id="533" value="" style="shape=tableRow;horizontal=0;startSize=0;swimlaneHead=0;swimlaneBody=0;fillColor=none;collapsible=0;dropTarget=0;points=[[0,0.5],[1,0.5]];portConstraint=eastwest;top=0;left=0;right=0;bottom=0;" vertex="1" parent="526">
                    <mxGeometry y="90" width="320" height="30" as="geometry"/>
                </mxCell>
                <mxCell id="534" value="" style="shape=partialRectangle;overflow=hidden;connectable=0;fillColor=none;top=0;left=0;bottom=0;right=0;" vertex="1" parent="533">
                    <mxGeometry width="30" height="30" as="geometry">
                        <mxRectangle width="30" height="30" as="alternateBounds"/>
                    </mxGeometry>
                </mxCell>
                <mxCell id="535" value="&quot;data&quot;                              String NN" style="shape=partialRectangle;overflow=hidden;connectable=0;fillColor=none;align=left;top=0;left=0;bottom=0;right=0;spacingLeft=6;" vertex="1" parent="533">
                    <mxGeometry x="30" width="290" height="30" as="geometry">
                        <mxRectangle width="290" height="30" as="alternateBounds"/>
                    </mxGeometry>
                </mxCell>
                <mxCell id="536" value="" style="edgeStyle=entityRelationEdgeStyle;fontSize=12;html=1;endArrow=ERoneToMany;" edge="1" parent="1" source="565" target="481">
                    <mxGeometry width="100" height="100" relative="1" as="geometry">
                        <mxPoint x="-343" y="472" as="sourcePoint"/>
                        <mxPoint x="-243" y="372" as="targetPoint"/>
                    </mxGeometry>
                </mxCell>
                <mxCell id="537" value="1" style="text;html=1;align=center;verticalAlign=middle;resizable=0;points=[];autosize=1;strokeColor=none;fillColor=none;" vertex="1" parent="1">
                    <mxGeometry x="-125" y="158" width="25" height="26" as="geometry"/>
                </mxCell>
                <mxCell id="538" value="M" style="text;html=1;align=center;verticalAlign=middle;resizable=0;points=[];autosize=1;strokeColor=none;fillColor=none;" vertex="1" parent="1">
                    <mxGeometry x="-120" y="528" width="28" height="26" as="geometry"/>
                </mxCell>
                <mxCell id="539" value="&quot;Document&quot;" style="shape=table;startSize=30;container=1;collapsible=1;childLayout=tableLayout;fixedRows=1;rowLines=0;fontStyle=1;align=center;resizeLast=1;" vertex="1" parent="1">
                    <mxGeometry x="-814" y="373" width="315" height="240" as="geometry"/>
                </mxCell>
                <mxCell id="540" value="" style="shape=tableRow;horizontal=0;startSize=0;swimlaneHead=0;swimlaneBody=0;fillColor=none;collapsible=0;dropTarget=0;points=[[0,0.5],[1,0.5]];portConstraint=eastwest;top=0;left=0;right=0;bottom=1;" vertex="1" parent="539">
                    <mxGeometry y="30" width="315" height="30" as="geometry"/>
                </mxCell>
                <mxCell id="541" value="PK" style="shape=partialRectangle;overflow=hidden;connectable=0;fillColor=none;top=0;left=0;bottom=0;right=0;fontStyle=1;" vertex="1" parent="540">
                    <mxGeometry width="30" height="30" as="geometry">
                        <mxRectangle width="30" height="30" as="alternateBounds"/>
                    </mxGeometry>
                </mxCell>
                <mxCell id="542" value="&quot;documentId&quot;    Int NN" style="shape=partialRectangle;overflow=hidden;connectable=0;fillColor=none;align=left;top=0;left=0;bottom=0;right=0;spacingLeft=6;fontStyle=5;" vertex="1" parent="540">
                    <mxGeometry x="30" width="285" height="30" as="geometry">
                        <mxRectangle width="285" height="30" as="alternateBounds"/>
                    </mxGeometry>
                </mxCell>
                <mxCell id="543" value="" style="shape=tableRow;horizontal=0;startSize=0;swimlaneHead=0;swimlaneBody=0;fillColor=none;collapsible=0;dropTarget=0;points=[[0,0.5],[1,0.5]];portConstraint=eastwest;top=0;left=0;right=0;bottom=1;" vertex="1" parent="539">
                    <mxGeometry y="60" width="315" height="30" as="geometry"/>
                </mxCell>
                <mxCell id="544" value="FK" style="shape=partialRectangle;overflow=hidden;connectable=0;fillColor=none;top=0;left=0;bottom=0;right=0;fontStyle=1;" vertex="1" parent="543">
                    <mxGeometry width="30" height="30" as="geometry">
                        <mxRectangle width="30" height="30" as="alternateBounds"/>
                    </mxGeometry>
                </mxCell>
                <mxCell id="545" value="&quot;userId&quot;              Int NN" style="shape=partialRectangle;overflow=hidden;connectable=0;fillColor=none;align=left;top=0;left=0;bottom=0;right=0;spacingLeft=6;fontStyle=5;" vertex="1" parent="543">
                    <mxGeometry x="30" width="285" height="30" as="geometry">
                        <mxRectangle width="285" height="30" as="alternateBounds"/>
                    </mxGeometry>
                </mxCell>
                <mxCell id="546" value="" style="shape=tableRow;horizontal=0;startSize=0;swimlaneHead=0;swimlaneBody=0;fillColor=none;collapsible=0;dropTarget=0;points=[[0,0.5],[1,0.5]];portConstraint=eastwest;top=0;left=0;right=0;bottom=0;" vertex="1" parent="539">
                    <mxGeometry y="90" width="315" height="30" as="geometry"/>
                </mxCell>
                <mxCell id="547" value="" style="shape=partialRectangle;overflow=hidden;connectable=0;fillColor=none;top=0;left=0;bottom=0;right=0;" vertex="1" parent="546">
                    <mxGeometry width="30" height="30" as="geometry">
                        <mxRectangle width="30" height="30" as="alternateBounds"/>
                    </mxGeometry>
                </mxCell>
                <mxCell id="548" value="&quot;name&quot;                String NN" style="shape=partialRectangle;overflow=hidden;connectable=0;fillColor=none;align=left;top=0;left=0;bottom=0;right=0;spacingLeft=6;" vertex="1" parent="546">
                    <mxGeometry x="30" width="285" height="30" as="geometry">
                        <mxRectangle width="285" height="30" as="alternateBounds"/>
                    </mxGeometry>
                </mxCell>
                <mxCell id="549" value="" style="shape=tableRow;horizontal=0;startSize=0;swimlaneHead=0;swimlaneBody=0;fillColor=none;collapsible=0;dropTarget=0;points=[[0,0.5],[1,0.5]];portConstraint=eastwest;top=0;left=0;right=0;bottom=0;" vertex="1" parent="539">
                    <mxGeometry y="120" width="315" height="30" as="geometry"/>
                </mxCell>
                <mxCell id="550" value="" style="shape=partialRectangle;overflow=hidden;connectable=0;fillColor=none;top=0;left=0;bottom=0;right=0;" vertex="1" parent="549">
                    <mxGeometry width="30" height="30" as="geometry">
                        <mxRectangle width="30" height="30" as="alternateBounds"/>
                    </mxGeometry>
                </mxCell>
                <mxCell id="551" value="&quot;path&quot;                  String NN" style="shape=partialRectangle;overflow=hidden;connectable=0;fillColor=none;align=left;top=0;left=0;bottom=0;right=0;spacingLeft=6;" vertex="1" parent="549">
                    <mxGeometry x="30" width="285" height="30" as="geometry">
                        <mxRectangle width="285" height="30" as="alternateBounds"/>
                    </mxGeometry>
                </mxCell>
                <mxCell id="552" value="" style="shape=tableRow;horizontal=0;startSize=0;swimlaneHead=0;swimlaneBody=0;fillColor=none;collapsible=0;dropTarget=0;points=[[0,0.5],[1,0.5]];portConstraint=eastwest;top=0;left=0;right=0;bottom=0;" vertex="1" parent="539">
                    <mxGeometry y="150" width="315" height="30" as="geometry"/>
                </mxCell>
                <mxCell id="553" value="" style="shape=partialRectangle;overflow=hidden;connectable=0;fillColor=none;top=0;left=0;bottom=0;right=0;" vertex="1" parent="552">
                    <mxGeometry width="30" height="30" as="geometry">
                        <mxRectangle width="30" height="30" as="alternateBounds"/>
                    </mxGeometry>
                </mxCell>
                <mxCell id="554" value="&quot;type&quot;                  String NN" style="shape=partialRectangle;overflow=hidden;connectable=0;fillColor=none;align=left;top=0;left=0;bottom=0;right=0;spacingLeft=6;" vertex="1" parent="552">
                    <mxGeometry x="30" width="285" height="30" as="geometry">
                        <mxRectangle width="285" height="30" as="alternateBounds"/>
                    </mxGeometry>
                </mxCell>
                <mxCell id="555" value="" style="shape=tableRow;horizontal=0;startSize=0;swimlaneHead=0;swimlaneBody=0;fillColor=none;collapsible=0;dropTarget=0;points=[[0,0.5],[1,0.5]];portConstraint=eastwest;top=0;left=0;right=0;bottom=0;" vertex="1" parent="539">
                    <mxGeometry y="180" width="315" height="30" as="geometry"/>
                </mxCell>
                <mxCell id="556" value="" style="shape=partialRectangle;overflow=hidden;connectable=0;fillColor=none;top=0;left=0;bottom=0;right=0;" vertex="1" parent="555">
                    <mxGeometry width="30" height="30" as="geometry">
                        <mxRectangle width="30" height="30" as="alternateBounds"/>
                    </mxGeometry>
                </mxCell>
                <mxCell id="557" value="&quot;category&quot;           String NN" style="shape=partialRectangle;overflow=hidden;connectable=0;fillColor=none;align=left;top=0;left=0;bottom=0;right=0;spacingLeft=6;" vertex="1" parent="555">
                    <mxGeometry x="30" width="285" height="30" as="geometry">
                        <mxRectangle width="285" height="30" as="alternateBounds"/>
                    </mxGeometry>
                </mxCell>
                <mxCell id="558" value="" style="shape=tableRow;horizontal=0;startSize=0;swimlaneHead=0;swimlaneBody=0;fillColor=none;collapsible=0;dropTarget=0;points=[[0,0.5],[1,0.5]];portConstraint=eastwest;top=0;left=0;right=0;bottom=0;" vertex="1" parent="539">
                    <mxGeometry y="210" width="315" height="30" as="geometry"/>
                </mxCell>
                <mxCell id="559" value="" style="shape=partialRectangle;overflow=hidden;connectable=0;fillColor=none;top=0;left=0;bottom=0;right=0;" vertex="1" parent="558">
                    <mxGeometry width="30" height="30" as="geometry">
                        <mxRectangle width="30" height="30" as="alternateBounds"/>
                    </mxGeometry>
                </mxCell>
                <mxCell id="560" value="&quot;dateCreated&quot;     DateTime NN" style="shape=partialRectangle;overflow=hidden;connectable=0;fillColor=none;align=left;top=0;left=0;bottom=0;right=0;spacingLeft=6;" vertex="1" parent="558">
                    <mxGeometry x="30" width="285" height="30" as="geometry">
                        <mxRectangle width="285" height="30" as="alternateBounds"/>
                    </mxGeometry>
                </mxCell>
                <mxCell id="561" value="" style="edgeStyle=entityRelationEdgeStyle;fontSize=12;html=1;endArrow=ERoneToMany;" edge="1" parent="1" source="565" target="543">
                    <mxGeometry width="100" height="100" relative="1" as="geometry">
                        <mxPoint x="-573" y="411" as="sourcePoint"/>
                        <mxPoint x="-566" y="810" as="targetPoint"/>
                        <Array as="points">
                            <mxPoint x="-411" y="225"/>
                            <mxPoint x="-412" y="238"/>
                        </Array>
                    </mxGeometry>
                </mxCell>
                <mxCell id="562" value="1" style="text;html=1;align=center;verticalAlign=middle;resizable=0;points=[];autosize=1;strokeColor=none;fillColor=none;" vertex="1" parent="1">
                    <mxGeometry x="-414" y="181" width="25" height="26" as="geometry"/>
                </mxCell>
                <mxCell id="563" value="M" style="text;html=1;align=center;verticalAlign=middle;resizable=0;points=[];autosize=1;strokeColor=none;fillColor=none;" vertex="1" parent="1">
                    <mxGeometry x="-499" y="425" width="28" height="26" as="geometry"/>
                </mxCell>
                <mxCell id="564" value="&quot;User&quot;" style="shape=table;startSize=30;container=1;collapsible=1;childLayout=tableLayout;fixedRows=1;rowLines=0;fontStyle=1;align=center;resizeLast=1;" vertex="1" parent="1">
                    <mxGeometry x="-394" y="134" width="272" height="300" as="geometry"/>
                </mxCell>
                <mxCell id="565" value="" style="shape=tableRow;horizontal=0;startSize=0;swimlaneHead=0;swimlaneBody=0;fillColor=none;collapsible=0;dropTarget=0;points=[[0,0.5],[1,0.5]];portConstraint=eastwest;top=0;left=0;right=0;bottom=1;" vertex="1" parent="564">
                    <mxGeometry y="30" width="272" height="30" as="geometry"/>
                </mxCell>
                <mxCell id="566" value="PK" style="shape=partialRectangle;overflow=hidden;connectable=0;fillColor=none;top=0;left=0;bottom=0;right=0;fontStyle=1;" vertex="1" parent="565">
                    <mxGeometry width="30" height="30" as="geometry">
                        <mxRectangle width="30" height="30" as="alternateBounds"/>
                    </mxGeometry>
                </mxCell>
                <mxCell id="567" value="&quot;userId&quot;              Int NN" style="shape=partialRectangle;overflow=hidden;connectable=0;fillColor=none;align=left;top=0;left=0;bottom=0;right=0;spacingLeft=6;fontStyle=5;" vertex="1" parent="565">
                    <mxGeometry x="30" width="242" height="30" as="geometry">
                        <mxRectangle width="242" height="30" as="alternateBounds"/>
                    </mxGeometry>
                </mxCell>
                <mxCell id="568" value="" style="shape=tableRow;horizontal=0;startSize=0;swimlaneHead=0;swimlaneBody=0;fillColor=none;collapsible=0;dropTarget=0;points=[[0,0.5],[1,0.5]];portConstraint=eastwest;top=0;left=0;right=0;bottom=0;" vertex="1" parent="564">
                    <mxGeometry y="60" width="272" height="30" as="geometry"/>
                </mxCell>
                <mxCell id="569" value="" style="shape=partialRectangle;overflow=hidden;connectable=0;fillColor=none;top=0;left=0;bottom=0;right=0;" vertex="1" parent="568">
                    <mxGeometry width="30" height="30" as="geometry">
                        <mxRectangle width="30" height="30" as="alternateBounds"/>
                    </mxGeometry>
                </mxCell>
                <mxCell id="570" value="&quot;data&quot;                         String NN" style="shape=partialRectangle;overflow=hidden;connectable=0;fillColor=none;align=left;top=0;left=0;bottom=0;right=0;spacingLeft=6;" vertex="1" parent="568">
                    <mxGeometry x="30" width="242" height="30" as="geometry">
                        <mxRectangle width="242" height="30" as="alternateBounds"/>
                    </mxGeometry>
                </mxCell>
                <mxCell id="571" value="" style="shape=tableRow;horizontal=0;startSize=0;swimlaneHead=0;swimlaneBody=0;fillColor=none;collapsible=0;dropTarget=0;points=[[0,0.5],[1,0.5]];portConstraint=eastwest;top=0;left=0;right=0;bottom=0;" vertex="1" parent="564">
                    <mxGeometry y="90" width="272" height="30" as="geometry"/>
                </mxCell>
                <mxCell id="572" value="" style="shape=partialRectangle;overflow=hidden;connectable=0;fillColor=none;top=0;left=0;bottom=0;right=0;" vertex="1" parent="571">
                    <mxGeometry width="30" height="30" as="geometry">
                        <mxRectangle width="30" height="30" as="alternateBounds"/>
                    </mxGeometry>
                </mxCell>
                <mxCell id="573" value="&quot;salt&quot;                          String" style="shape=partialRectangle;overflow=hidden;connectable=0;fillColor=none;align=left;top=0;left=0;bottom=0;right=0;spacingLeft=6;" vertex="1" parent="571">
                    <mxGeometry x="30" width="242" height="30" as="geometry">
                        <mxRectangle width="242" height="30" as="alternateBounds"/>
                    </mxGeometry>
                </mxCell>
                <mxCell id="574" value="" style="shape=tableRow;horizontal=0;startSize=0;swimlaneHead=0;swimlaneBody=0;fillColor=none;collapsible=0;dropTarget=0;points=[[0,0.5],[1,0.5]];portConstraint=eastwest;top=0;left=0;right=0;bottom=0;" vertex="1" parent="564">
                    <mxGeometry y="120" width="272" height="30" as="geometry"/>
                </mxCell>
                <mxCell id="575" value="" style="shape=partialRectangle;overflow=hidden;connectable=0;fillColor=none;top=0;left=0;bottom=0;right=0;" vertex="1" parent="574">
                    <mxGeometry width="30" height="30" as="geometry">
                        <mxRectangle width="30" height="30" as="alternateBounds"/>
                    </mxGeometry>
                </mxCell>
                <mxCell id="576" value="&quot;dateCreated&quot;            DateTime NN" style="shape=partialRectangle;overflow=hidden;connectable=0;fillColor=none;align=left;top=0;left=0;bottom=0;right=0;spacingLeft=6;" vertex="1" parent="574">
                    <mxGeometry x="30" width="242" height="30" as="geometry">
                        <mxRectangle width="242" height="30" as="alternateBounds"/>
                    </mxGeometry>
                </mxCell>
                <mxCell id="577" value="" style="shape=tableRow;horizontal=0;startSize=0;swimlaneHead=0;swimlaneBody=0;fillColor=none;collapsible=0;dropTarget=0;points=[[0,0.5],[1,0.5]];portConstraint=eastwest;top=0;left=0;right=0;bottom=0;" vertex="1" parent="564">
                    <mxGeometry y="150" width="272" height="30" as="geometry"/>
                </mxCell>
                <mxCell id="578" value="" style="shape=partialRectangle;overflow=hidden;connectable=0;fillColor=none;top=0;left=0;bottom=0;right=0;" vertex="1" parent="577">
                    <mxGeometry width="30" height="30" as="geometry">
                        <mxRectangle width="30" height="30" as="alternateBounds"/>
                    </mxGeometry>
                </mxCell>
                <mxCell id="579" value="&quot;dateUpdated&quot;           DateTime NN" style="shape=partialRectangle;overflow=hidden;connectable=0;fillColor=none;align=left;top=0;left=0;bottom=0;right=0;spacingLeft=6;" vertex="1" parent="577">
                    <mxGeometry x="30" width="242" height="30" as="geometry">
                        <mxRectangle width="242" height="30" as="alternateBounds"/>
                    </mxGeometry>
                </mxCell>
                <mxCell id="580" value="" style="shape=tableRow;horizontal=0;startSize=0;swimlaneHead=0;swimlaneBody=0;fillColor=none;collapsible=0;dropTarget=0;points=[[0,0.5],[1,0.5]];portConstraint=eastwest;top=0;left=0;right=0;bottom=0;" vertex="1" parent="564">
                    <mxGeometry y="180" width="272" height="30" as="geometry"/>
                </mxCell>
                <mxCell id="581" value="" style="shape=partialRectangle;overflow=hidden;connectable=0;fillColor=none;top=0;left=0;bottom=0;right=0;" vertex="1" parent="580">
                    <mxGeometry width="30" height="30" as="geometry">
                        <mxRectangle width="30" height="30" as="alternateBounds"/>
                    </mxGeometry>
                </mxCell>
                <mxCell id="582" value="&quot;picture&quot;                    String" style="shape=partialRectangle;overflow=hidden;connectable=0;fillColor=none;align=left;top=0;left=0;bottom=0;right=0;spacingLeft=6;" vertex="1" parent="580">
                    <mxGeometry x="30" width="242" height="30" as="geometry">
                        <mxRectangle width="242" height="30" as="alternateBounds"/>
                    </mxGeometry>
                </mxCell>
                <mxCell id="583" value="" style="shape=tableRow;horizontal=0;startSize=0;swimlaneHead=0;swimlaneBody=0;fillColor=none;collapsible=0;dropTarget=0;points=[[0,0.5],[1,0.5]];portConstraint=eastwest;top=0;left=0;right=0;bottom=0;" vertex="1" parent="564">
                    <mxGeometry y="210" width="272" height="30" as="geometry"/>
                </mxCell>
                <mxCell id="584" value="" style="shape=partialRectangle;overflow=hidden;connectable=0;fillColor=none;top=0;left=0;bottom=0;right=0;" vertex="1" parent="583">
                    <mxGeometry width="30" height="30" as="geometry">
                        <mxRectangle width="30" height="30" as="alternateBounds"/>
                    </mxGeometry>
                </mxCell>
                <mxCell id="585" value="&quot;masterPassword&quot;    String NN" style="shape=partialRectangle;overflow=hidden;connectable=0;fillColor=none;align=left;top=0;left=0;bottom=0;right=0;spacingLeft=6;" vertex="1" parent="583">
                    <mxGeometry x="30" width="242" height="30" as="geometry">
                        <mxRectangle width="242" height="30" as="alternateBounds"/>
                    </mxGeometry>
                </mxCell>
                <mxCell id="586" value="" style="shape=tableRow;horizontal=0;startSize=0;swimlaneHead=0;swimlaneBody=0;fillColor=none;collapsible=0;dropTarget=0;points=[[0,0.5],[1,0.5]];portConstraint=eastwest;top=0;left=0;right=0;bottom=0;" vertex="1" parent="564">
                    <mxGeometry y="240" width="272" height="30" as="geometry"/>
                </mxCell>
                <mxCell id="587" value="" style="shape=partialRectangle;overflow=hidden;connectable=0;fillColor=none;top=0;left=0;bottom=0;right=0;" vertex="1" parent="586">
                    <mxGeometry width="30" height="30" as="geometry">
                        <mxRectangle width="30" height="30" as="alternateBounds"/>
                    </mxGeometry>
                </mxCell>
                <mxCell id="588" value="&quot;lastBackupDate&quot;      DateTime NN" style="shape=partialRectangle;overflow=hidden;connectable=0;fillColor=none;align=left;top=0;left=0;bottom=0;right=0;spacingLeft=6;" vertex="1" parent="586">
                    <mxGeometry x="30" width="242" height="30" as="geometry">
                        <mxRectangle width="242" height="30" as="alternateBounds"/>
                    </mxGeometry>
                </mxCell>
                <mxCell id="589" value="" style="shape=tableRow;horizontal=0;startSize=0;swimlaneHead=0;swimlaneBody=0;fillColor=none;collapsible=0;dropTarget=0;points=[[0,0.5],[1,0.5]];portConstraint=eastwest;top=0;left=0;right=0;bottom=0;" vertex="1" parent="564">
                    <mxGeometry y="270" width="272" height="30" as="geometry"/>
                </mxCell>
                <mxCell id="590" value="" style="shape=partialRectangle;overflow=hidden;connectable=0;fillColor=none;top=0;left=0;bottom=0;right=0;" vertex="1" parent="589">
                    <mxGeometry width="30" height="30" as="geometry">
                        <mxRectangle width="30" height="30" as="alternateBounds"/>
                    </mxGeometry>
                </mxCell>
                <mxCell id="591" value="&quot;preference&quot;              String NN" style="shape=partialRectangle;overflow=hidden;connectable=0;fillColor=none;align=left;top=0;left=0;bottom=0;right=0;spacingLeft=6;" vertex="1" parent="589">
                    <mxGeometry x="30" width="242" height="30" as="geometry">
                        <mxRectangle width="242" height="30" as="alternateBounds"/>
                    </mxGeometry>
                </mxCell>
                <mxCell id="592" value="" style="edgeStyle=entityRelationEdgeStyle;fontSize=12;html=1;endArrow=ERmandOne;startArrow=ERmandOne;rounded=0;startSize=8;endSize=8;curved=1;" edge="1" parent="1" source="530" target="565">
                    <mxGeometry width="100" height="100" relative="1" as="geometry">
                        <mxPoint x="-869" y="554" as="sourcePoint"/>
                        <mxPoint x="-769" y="454" as="targetPoint"/>
                        <Array as="points">
                            <mxPoint x="-431" y="181"/>
                        </Array>
                    </mxGeometry>
                </mxCell>
                <mxCell id="593" value="1" style="text;html=1;align=center;verticalAlign=middle;resizable=0;points=[];autosize=1;strokeColor=none;fillColor=none;" vertex="1" parent="1">
                    <mxGeometry x="-414" y="150" width="25" height="26" as="geometry"/>
                </mxCell>
                <mxCell id="594" value="1" style="text;html=1;align=center;verticalAlign=middle;resizable=0;points=[];autosize=1;strokeColor=none;fillColor=none;" vertex="1" parent="1">
                    <mxGeometry x="-502" y="251" width="25" height="26" as="geometry"/>
                </mxCell>
            </root>
        </mxGraphModel>
    </diagram>
</mxfile>